<svg width="632" height="470" viewBox="0 0 632 470" fill="none" xmlns="http://www.w3.org/2000/svg">
    <path d="M632 413.029H0V413.344H632V413.029Z" fill="#EBEBEB"/>
    <path d="M568.673 433.327H526.81V433.642H568.673V433.327Z" fill="#EBEBEB"/>
    <path d="M473.911 429.063H400.625V429.379H473.911V429.063Z" fill="#EBEBEB"/>
    <path d="M525.546 421.62H457.151V421.935H525.546V421.62Z" fill="#EBEBEB"/>
    <path d="M85.1556 423.739H66.3093V424.055H85.1556V423.739Z" fill="#EBEBEB"/>
    <path d="M177.807 423.739H96.405V424.055H177.807V423.739Z" fill="#EBEBEB"/>
    <path d="M284.59 429.063H230.048V429.379H284.59V429.063Z" fill="#EBEBEB"/>
    <path d="M299.568 356.764H55.5018C53.5898 356.761 51.7573 356 50.4065 354.65C49.0557 353.299 48.297 351.469 48.297 349.561V7.14033C48.3136 5.243 49.0797 3.42884 50.4287 2.09191C51.7777 0.75498 53.6007 0.00325022 55.5018 0H299.568C301.482 0 303.318 0.758928 304.671 2.10983C306.025 3.46073 306.785 5.29294 306.785 7.2034V349.561C306.785 351.471 306.025 353.303 304.671 354.654C303.318 356.005 301.482 356.764 299.568 356.764ZM55.5018 0.252309C53.6736 0.255651 51.9215 0.982823 50.6299 2.27422C49.3384 3.56561 48.613 5.31569 48.613 7.14033V349.561C48.613 351.385 49.3384 353.135 50.6299 354.427C51.9215 355.718 53.6736 356.445 55.5018 356.449H299.568C301.397 356.445 303.15 355.719 304.444 354.427C305.737 353.136 306.466 351.386 306.469 349.561V7.14033C306.466 5.31454 305.737 3.56448 304.444 2.27345C303.15 0.982413 301.397 0.255644 299.568 0.252309H55.5018Z" fill="#EBEBEB"/>
    <path d="M572.984 356.764H328.905C326.992 356.761 325.158 356.001 323.806 354.651C322.453 353.3 321.691 351.47 321.688 349.561V7.14033C321.708 5.24185 322.477 3.42771 323.828 2.09112C325.179 0.754539 327.003 0.00321477 328.905 0H572.984C574.883 0.00656569 576.703 0.759763 578.049 2.09634C579.395 3.43292 580.159 5.24518 580.176 7.14033V349.561C580.176 351.467 579.419 353.295 578.071 354.645C576.723 355.995 574.894 356.757 572.984 356.764ZM328.905 0.252309C327.076 0.255644 325.323 0.982413 324.029 2.27345C322.736 3.56448 322.007 5.31454 322.004 7.14033V349.561C322.007 351.386 322.736 353.136 324.029 354.427C325.323 355.719 327.076 356.445 328.905 356.449H572.984C574.813 356.445 576.567 355.719 577.86 354.427C579.154 353.136 579.882 351.386 579.885 349.561V7.14033C579.882 5.31454 579.154 3.56448 577.86 2.27345C576.567 0.982413 574.813 0.255644 572.984 0.252309H328.905Z" fill="#EBEBEB"/>
    <path d="M281.935 22.5061H81.73V136.613H281.935V22.5061Z" fill="#FAFAFA"/>
    <path d="M270.534 136.613L219.62 22.5061H181.396L232.323 136.613H270.534Z" fill="white"/>
    <path d="M167.784 136.613L116.857 22.5061H102.915L153.842 136.613H167.784Z" fill="white"/>
    <path d="M72.1743 17.5731H291.478C291.714 17.5764 291.939 17.6723 292.105 17.8399C292.27 18.0075 292.363 18.2334 292.363 18.4688C292.36 18.702 292.266 18.9247 292.1 19.0897C291.935 19.2546 291.712 19.3486 291.478 19.3519H72.1743C71.9407 19.3486 71.7175 19.2546 71.5523 19.0897C71.3871 18.9247 71.2928 18.702 71.2896 18.4688C71.2895 18.2334 71.3823 18.0075 71.5479 17.8399C71.7135 17.6723 71.9385 17.5764 72.1743 17.5731Z" fill="#E0E0E0"/>
    <path d="M183.014 22.2032H180.638V136.928H183.014V22.2032Z" fill="#F0F0F0"/>
    <path d="M180.638 22.2032H179.45V136.928H180.638V22.2032Z" fill="#E0E0E0"/>
    <path d="M80.3401 78.3796V80.7513L283.313 80.7513V78.3796L80.3401 78.3796Z" fill="#F0F0F0"/>
    <path d="M80.3401 135.628V21.1308H283.313V135.628V137.987H80.3401V135.628ZM280.937 135.628V23.4899H82.7164V135.628H280.937Z" fill="#F0F0F0"/>
    <path d="M80.34 21.1308H79.1519V138H80.34V21.1308Z" fill="#E0E0E0"/>
    <path opacity="0.5" d="M111.763 13.5615V171.33H70.1016L77.7488 13.5615H111.763Z" fill="#EBEBEB"/>
    <path opacity="0.5" d="M250.702 13.5615V171.33H292.363L284.729 13.5615H250.702Z" fill="#EBEBEB"/>
    <path d="M551.458 22.5061H351.253V136.613H551.458V22.5061Z" fill="#FAFAFA"/>
    <path d="M540.069 136.613L489.143 22.5061H450.932L501.858 136.613H540.069Z" fill="white"/>
    <path d="M437.306 136.613L386.392 22.5061H372.45L423.364 136.613H437.306Z" fill="white"/>
    <path d="M341.71 17.5731H561.001C561.239 17.5731 561.468 17.6675 561.636 17.8355C561.804 18.0034 561.899 18.2313 561.899 18.4688C561.896 18.7042 561.8 18.9288 561.632 19.094C561.464 19.2593 561.237 19.3519 561.001 19.3519H341.71C341.475 19.3519 341.25 19.2589 341.084 19.0933C340.918 18.9276 340.825 18.703 340.825 18.4688C340.824 18.3518 340.845 18.2356 340.889 18.127C340.933 18.0184 340.998 17.9196 341.08 17.8362C341.162 17.7529 341.26 17.6867 341.369 17.6415C341.477 17.5964 341.593 17.5731 341.71 17.5731Z" fill="#E0E0E0"/>
    <path d="M452.55 22.2032H450.174V136.928H452.55V22.2032Z" fill="#F0F0F0"/>
    <path d="M450.173 22.2032H448.985V136.928H450.173V22.2032Z" fill="#E0E0E0"/>
    <path d="M349.875 78.3669V80.7386L552.849 80.7386V78.3669L349.875 78.3669Z" fill="#F0F0F0"/>
    <path d="M349.875 135.628V21.1308H552.849V135.628V137.987H349.875V135.628ZM550.472 135.628V23.4899H352.239V135.628H550.472Z" fill="#F0F0F0"/>
    <path d="M349.875 21.1308H348.687V138H349.875V21.1308Z" fill="#E0E0E0"/>
    <path opacity="0.5" d="M381.298 13.5615V171.33H339.637L347.271 13.5615H381.298Z" fill="#EBEBEB"/>
    <path opacity="0.5" d="M520.237 13.5615V171.33H561.899L554.251 13.5615H520.237Z" fill="#EBEBEB"/>
    <path d="M296.964 246.442L566.297 246.442V230.547L296.964 230.547V246.442Z" fill="#EBEBEB"/>
    <path d="M296.964 246.442H366.446V230.547H296.964V246.442Z" fill="#E0E0E0"/>
    <path d="M542.686 413.016H566.297V246.429H542.686V413.016Z" fill="#EBEBEB"/>
    <path d="M296.964 413.016H320.576V246.429H296.964V413.016Z" fill="#E0E0E0"/>
    <path d="M496.815 413.016H520.427V246.429H496.815V413.016Z" fill="#E0E0E0"/>
    <path d="M296.964 308.851L566.297 308.851V292.955L296.964 292.955V308.851Z" fill="#EBEBEB"/>
    <path d="M296.964 308.851H366.446V292.955H296.964V308.851Z" fill="#E0E0E0"/>
    <path d="M296.964 371.259L566.297 371.259V355.364L296.964 355.364V371.259Z" fill="#EBEBEB"/>
    <path d="M296.964 371.259H366.446V355.364H296.964V371.259Z" fill="#E0E0E0"/>
    <path d="M342.834 413.016H366.446V246.429H342.834V413.016Z" fill="#E0E0E0"/>
    <path d="M93.0684 242.822H71.77V407.301H93.0684V242.822Z" fill="#F0F0F0"/>
    <path d="M240.274 407.301H74.7275V413.029H240.274V407.301Z" fill="#E6E6E6"/>
    <path d="M93.0811 407.301H243.219L243.219 242.822L93.0811 242.822L93.0811 407.301Z" fill="#FAFAFA"/>
    <path d="M115.821 344.174H220.455C223.505 344.174 225.978 341.706 225.978 338.661V310.163C225.978 307.118 223.505 304.65 220.455 304.65H115.821C112.77 304.65 110.297 307.118 110.297 310.163V338.661C110.297 341.706 112.77 344.174 115.821 344.174Z" fill="white"/>
    <path d="M115.821 395.052H220.455C223.505 395.052 225.978 392.584 225.978 389.539V361.041C225.978 357.996 223.505 355.528 220.455 355.528H115.821C112.77 355.528 110.297 357.996 110.297 361.041V389.539C110.297 392.584 112.77 395.052 115.821 395.052Z" fill="white"/>
    <path d="M176.543 302.947H159.757C158.033 302.947 156.635 304.342 156.635 306.063V308.359C156.635 310.08 158.033 311.475 159.757 311.475H176.543C178.267 311.475 179.665 310.08 179.665 308.359V306.063C179.665 304.342 178.267 302.947 176.543 302.947Z" fill="#FAFAFA"/>
    <path d="M115.821 293.296H220.455C223.505 293.296 225.978 290.828 225.978 287.783V259.285C225.978 256.24 223.505 253.772 220.455 253.772H115.821C112.77 253.772 110.297 256.24 110.297 259.285V287.783C110.297 290.828 112.77 293.296 115.821 293.296Z" fill="white"/>
    <path d="M176.543 252.069H159.757C158.033 252.069 156.635 253.464 156.635 255.185V257.481C156.635 259.201 158.033 260.597 159.757 260.597H176.543C178.267 260.597 179.665 259.201 179.665 257.481V255.185C179.665 253.464 178.267 252.069 176.543 252.069Z" fill="#FAFAFA"/>
    <path d="M176.543 353.812H159.757C158.033 353.812 156.635 355.207 156.635 356.928V359.224C156.635 360.945 158.033 362.34 159.757 362.34H176.543C178.267 362.34 179.665 360.945 179.665 359.224V356.928C179.665 355.207 178.267 353.812 176.543 353.812Z" fill="#FAFAFA"/>
    <path d="M247.099 237.498H93.0681V242.821H247.099V237.498Z" fill="#F0F0F0"/>
    <path d="M67.5859 242.822H93.0681V237.498H67.5859V242.822Z" fill="#E6E6E6"/>
    <path d="M93.4094 184.753H185.163L192.558 234.735H100.804L93.4094 184.753Z" fill="#E6E6E6"/>
    <path d="M100.804 234.735L100.842 237.498H192.596L192.558 234.735H100.804Z" fill="#E6E6E6"/>
    <path d="M96.2412 184.753H187.995L195.377 234.735H103.623L96.2412 184.753Z" fill="#F0F0F0"/>
    <path d="M105.835 232.452L99.1228 187.036H185.783L192.494 232.452H105.835Z" fill="white"/>
    <path d="M127.525 234.735L127.575 237.498H228.62L228.569 234.735H127.525Z" fill="#F0F0F0"/>
    <path d="M316 470C451.352 470 561.077 463.606 561.077 455.719C561.077 447.832 451.352 441.439 316 441.439C180.648 441.439 70.9229 447.832 70.9229 455.719C70.9229 463.606 180.648 470 316 470Z" fill="#F5F5F5"/>
    <path d="M145.36 55.9746C146.346 47.7746 159.264 41.3281 170.475 45.201C183.343 49.6543 181.308 61.4245 189.815 61.8912C198.321 62.358 202.581 77.3956 195.136 84.3593C187.691 91.323 201.368 94.4516 201.823 104.216C202.278 113.98 202.316 121.562 210.329 128.791C220.441 137.887 204.856 167.23 179.26 153.82C156.319 141.797 127.601 159.093 122.469 142.403C118.032 127.996 139.798 112.366 135.248 105.389C130.697 98.4129 133.718 91.8528 138.888 83.4131C145.246 73.0685 129.636 57.6398 145.36 55.9746Z" fill="#263238"/>
    <path d="M196.401 123.959C199.523 130.267 202.721 136.739 206.07 142.983C207.764 146.087 209.483 149.177 211.24 152.167C212.887 155.022 214.733 157.758 216.764 160.355L217.181 160.847C217.254 160.942 217.344 161.023 217.446 161.086C217.775 161.311 218.138 161.481 218.521 161.591C219.754 161.937 221.033 162.086 222.313 162.033C225.555 161.897 228.772 161.407 231.907 160.569C235.231 159.762 238.568 158.702 241.905 157.541C245.242 156.381 248.591 155.094 251.802 153.757L254.734 159.068C248.445 163.231 241.713 166.688 234.662 169.375C230.899 170.819 226.972 171.794 222.97 172.276C220.627 172.548 218.256 172.454 215.942 171.999C214.551 171.699 213.21 171.202 211.961 170.523C211.275 170.161 210.624 169.739 210.014 169.261C209.7 169.009 209.4 168.739 209.117 168.454L208.56 167.785C205.894 164.86 203.483 161.711 201.356 158.374C199.245 155.233 197.336 152.066 195.503 148.824C191.812 142.378 188.45 135.906 185.391 129.157L196.401 123.959Z" fill="#CE7A63"/>
    <path d="M188.981 112.277C194.037 112.101 203.125 130.645 203.125 130.645L189.828 146.755C189.828 146.755 174.306 127.34 176.442 121.108C178.654 114.51 181.536 112.542 188.981 112.277Z" fill="#C62A56"/>
    <path opacity="0.2" d="M189.827 116.768L196.741 138.404L190.51 145.935L189.827 116.768Z" fill="black"/>
    <path d="M260.536 149.569L248.313 155.41L248.085 159.711C251.612 163.231 259.006 160.973 259.006 160.973L268.056 159.8L269.219 154.753C269.372 154.122 269.384 153.465 269.254 152.828C269.124 152.192 268.856 151.591 268.467 151.07C268.079 150.549 267.58 150.119 267.007 149.812C266.433 149.504 265.799 149.326 265.149 149.291L262.621 149.165C261.904 149.131 261.188 149.269 260.536 149.569Z" fill="#CE7A63"/>
    <path d="M164.282 445.539H176.29L177.389 417.772H165.369L164.282 445.539Z" fill="#CE7A63"/>
    <path d="M177.416 444.151H163.916C163.804 444.146 163.692 444.163 163.586 444.202C163.481 444.241 163.384 444.3 163.301 444.376C163.219 444.453 163.153 444.544 163.106 444.647C163.06 444.749 163.034 444.859 163.031 444.971L162.576 455.631C162.586 456.196 162.816 456.734 163.217 457.132C163.618 457.53 164.159 457.757 164.725 457.763C169.414 457.688 171.652 457.41 177.592 457.41C181.245 457.41 189.651 457.788 194.694 457.788C199.738 457.788 199.498 452.805 197.361 452.364C187.742 450.333 182.939 447.545 179.488 444.896C178.899 444.426 178.17 444.164 177.416 444.151Z" fill="#263238"/>
    <g opacity="0.2">
        <path d="M177.39 417.785L176.821 432.09H164.801L165.369 417.785H177.39Z" fill="black"/>
    </g>
    <path d="M193.797 118.232C194.062 125.801 192.748 143.526 184.759 184.753L135.981 183.302C137.397 163.509 137.776 151.297 129.51 110.347C136.38 109.141 143.329 108.437 150.303 108.24C157.691 107.933 165.091 108.152 172.448 108.896C178.098 109.578 184.178 110.751 188.172 111.583C189.719 111.904 191.115 112.733 192.134 113.939C193.154 115.144 193.739 116.655 193.797 118.232Z" fill="#C62A56"/>
    <path d="M153.235 83.4133C154.423 90.5662 155.421 103.598 150.302 108.24C150.302 108.24 155.042 117.071 167.215 120.288C178.452 114.599 172.448 108.934 172.448 108.934C164.56 106.802 164.939 100.923 166.481 95.4484L153.235 83.4133Z" fill="#CE7A63"/>
    <path d="M167.214 120.288L165.761 117.449L157.949 119.216L167.214 120.288Z" fill="#E0E0E0"/>
    <path d="M165.761 117.45C163.233 116.314 151.642 108.757 151.187 106.411C149.206 106.602 147.254 107.025 145.373 107.673C145.373 107.673 146.852 116.201 155.965 126.015C158.316 120.692 161.438 118.358 165.761 117.45Z" fill="white"/>
    <path d="M167.215 120.288L167.872 117.449L172.662 117.79L167.215 120.288Z" fill="#E0E0E0"/>
    <path d="M167.872 117.45C171.739 114.926 170.791 109.514 170.4 107.168C172.371 107.442 174.319 107.864 176.227 108.43C178.064 110.971 179.101 114 179.207 117.132C179.313 120.264 178.482 123.356 176.821 126.015C174.95 120.969 171.752 119.153 167.872 117.45Z" fill="white"/>
    <path opacity="0.2" d="M158.632 88.3079L166.482 95.3978C166.103 96.6757 165.836 97.9843 165.685 99.3085C162.652 98.7787 158.582 95.3221 158.354 92.143C158.214 90.8583 158.308 89.5591 158.632 88.3079Z" fill="black"/>
    <path d="M149.456 68.2243C149.974 80.108 149.949 85.1542 155.851 91.3609C164.699 100.684 179.248 97.429 182.294 85.6335C185.037 74.9987 183.71 57.3372 172.182 52.4172C169.636 51.3086 166.847 50.8699 164.082 51.143C161.318 51.4162 158.669 52.392 156.39 53.9774C154.11 55.5627 152.276 57.7047 151.062 60.1989C149.848 62.693 149.295 65.4561 149.456 68.2243Z" fill="#CE7A63"/>
    <path d="M147.8 55.2808C152.211 57.4885 158.291 57.11 159.429 59.7592C160.566 62.4085 157.368 78.2156 150.758 78.3417C144.678 70.1543 143.768 59.078 147.8 55.2808Z" fill="#263238"/>
    <path d="M148.406 57.2613C158.139 63.405 190.219 69.145 179.741 55.2806C171.778 44.7594 150.833 50.0579 148.406 57.2613Z" fill="#263238"/>
    <path d="M184.873 184.753C184.873 184.753 189.588 273.351 189.828 309.759C190.08 347.605 179.4 429.315 179.4 429.315H163.145C163.145 429.315 166.241 346.747 163.739 309.38C161.008 268.645 151.516 183.693 151.516 183.693L184.873 184.753Z" fill="#263238"/>
    <path d="M161.792 429.908H180.865L181.649 423.828L160.224 423.096L161.792 429.908Z" fill="#C62A56"/>
    <path opacity="0.2" d="M154.954 215.509C156.711 213.327 159.011 214.45 162.019 220.682C172.283 241.926 167.075 275.824 162.677 295.352C160.705 271.042 157.444 239.012 154.954 215.509Z" fill="black"/>
    <path d="M169.186 72.728C169.186 73.6994 169.667 74.4942 170.299 74.5068C170.931 74.5194 171.461 73.7373 171.474 72.7785C171.487 71.8197 170.994 71.0123 170.362 70.9997C169.73 70.9871 169.199 71.7693 169.186 72.728Z" fill="#263238"/>
    <path d="M180.132 72.6398C180.132 73.6112 180.613 74.4059 181.245 74.4185C181.877 74.4312 182.408 73.649 182.42 72.6902C182.433 71.7315 181.94 70.9241 181.308 70.9115C180.676 70.8988 180.145 71.681 180.132 72.6398Z" fill="#263238"/>
    <path d="M181.017 70.9617L183.356 70.331C183.356 70.331 182.142 72.1224 181.017 70.9617Z" fill="#263238"/>
    <path d="M175.924 73.5731C176.747 75.7947 177.874 77.892 179.273 79.8051C178.772 80.1505 178.201 80.3825 177.601 80.485C177.001 80.5874 176.385 80.5577 175.797 80.3981L175.924 73.5731Z" fill="#BA4D3C"/>
    <path d="M170.45 84.0942C170.923 84.1703 171.4 84.2125 171.879 84.2204C171.921 84.2293 171.965 84.2288 172.007 84.2186C172.049 84.2085 172.088 84.1892 172.122 84.162C172.156 84.1348 172.183 84.1004 172.202 84.0614C172.22 84.0224 172.23 83.9798 172.23 83.9365C172.23 83.8933 172.22 83.8507 172.202 83.8117C172.183 83.7727 172.156 83.7383 172.122 83.7111C172.088 83.6839 172.049 83.6645 172.007 83.6544C171.965 83.6443 171.921 83.6437 171.879 83.6527C170.671 83.6658 169.479 83.3911 168.399 82.8513C167.32 82.3115 166.385 81.5223 165.673 80.5493C165.631 80.4871 165.567 80.4432 165.494 80.4267C165.421 80.4103 165.345 80.4226 165.281 80.461C165.249 80.4803 165.221 80.5059 165.199 80.5363C165.177 80.5666 165.161 80.6011 165.153 80.6377C165.145 80.6742 165.144 80.7121 165.151 80.7489C165.157 80.7857 165.172 80.8208 165.192 80.8521C165.809 81.714 166.592 82.4446 167.494 83.0013C168.397 83.5579 169.402 83.9295 170.45 84.0942Z" fill="#263238"/>
    <path d="M146.043 79.0609C146.813 81.2285 148.413 83.0026 150.492 83.9936C153.26 85.2551 155.144 82.9339 154.79 80.0575C154.474 77.5345 152.654 73.7498 149.734 73.6111C149.077 73.5928 148.426 73.7403 147.841 74.0399C147.257 74.3394 146.757 74.7814 146.389 75.3248C146.021 75.8681 145.797 76.4954 145.736 77.1485C145.676 77.8016 145.781 78.4594 146.043 79.0609Z" fill="#CE7A63"/>
    <path d="M164.775 69.5364C164.892 69.5622 165.015 69.5476 165.123 69.4949C165.231 69.4422 165.318 69.3545 165.369 69.2462C166.633 66.925 169.958 66.4582 169.995 66.4582C170.07 66.4489 170.143 66.4248 170.208 66.3873C170.274 66.3497 170.331 66.2996 170.377 66.2397C170.423 66.1798 170.457 66.1114 170.476 66.0384C170.495 65.9655 170.499 65.8895 170.488 65.8148C170.467 65.666 170.386 65.5319 170.266 65.442C170.145 65.3521 169.993 65.3138 169.844 65.3354C169.679 65.3354 165.862 65.8779 164.371 68.7164C164.336 68.7826 164.314 68.8551 164.307 68.9297C164.3 69.0043 164.308 69.0795 164.33 69.151C164.353 69.2226 164.389 69.289 164.437 69.3465C164.485 69.4039 164.544 69.4513 164.611 69.4859C164.661 69.5159 164.717 69.5333 164.775 69.5364Z" fill="#263238"/>
    <path d="M183.457 67.0384C183.554 67.0569 183.655 67.0491 183.748 67.0159C183.841 66.9826 183.924 66.925 183.988 66.8491C184.037 66.7923 184.075 66.7261 184.099 66.6545C184.122 66.5829 184.132 66.5074 184.126 66.4322C184.12 66.3571 184.099 66.2838 184.065 66.2168C184.03 66.1497 183.982 66.0902 183.925 66.0417C183.246 65.4409 182.432 65.0125 181.551 64.7929C180.671 64.5732 179.751 64.5689 178.869 64.7802C178.732 64.8302 178.621 64.9302 178.556 65.0598C178.491 65.1893 178.478 65.3387 178.52 65.4773C178.562 65.6159 178.656 65.7332 178.782 65.8053C178.907 65.8774 179.056 65.8988 179.197 65.8651C179.897 65.7173 180.621 65.7375 181.311 65.9239C182.001 66.1103 182.637 66.4577 183.166 66.9374C183.252 66.9971 183.353 67.032 183.457 67.0384Z" fill="#263238"/>
    <path d="M134.414 129.131C130.951 134.077 127.462 139.362 124.213 144.598C120.982 149.796 118.029 155.161 115.365 160.67L114.885 161.679L114.645 162.196C114.645 162.196 114.645 162.323 114.645 162.196C114.645 162.196 114.531 162.373 114.531 162.764C114.542 163.871 114.708 164.971 115.024 166.031C115.82 168.798 116.843 171.494 118.083 174.093C120.687 179.543 123.834 185.068 127.02 190.392L122.216 194.176C117.657 189.392 113.557 184.193 109.968 178.647C108.036 175.717 106.409 172.597 105.114 169.337C104.333 167.4 103.839 165.36 103.648 163.281C103.534 161.883 103.658 160.475 104.015 159.118C104.015 158.929 104.129 158.727 104.192 158.525L104.381 158.021L104.609 157.428L105.064 156.255C106.328 153.101 107.668 150.073 109.134 147.108C110.6 144.144 112.117 141.293 113.76 138.378C117.032 132.671 120.632 127.157 124.542 121.865L134.414 129.131Z" fill="#CE7A63"/>
    <path d="M129.51 110.347C124.567 111.684 118.197 128.311 118.197 128.311L136.765 142.403C136.765 142.403 144.096 128.589 142.225 122.218C140.304 115.595 135.134 108.821 129.51 110.347Z" fill="#C62A56"/>
    <path d="M182.13 446.245C183.135 446.352 184.146 446.092 184.974 445.514C185.149 445.333 185.276 445.111 185.343 444.868C185.409 444.626 185.413 444.37 185.353 444.126C185.321 443.965 185.253 443.814 185.155 443.683C185.056 443.552 184.93 443.445 184.784 443.369C183.23 442.574 178.692 445.009 178.174 445.286C178.125 445.319 178.088 445.365 178.068 445.42C178.048 445.474 178.045 445.533 178.06 445.589C178.073 445.649 178.104 445.703 178.15 445.744C178.195 445.784 178.252 445.81 178.313 445.816C179.569 446.074 180.847 446.218 182.13 446.245ZM184.026 443.722C184.213 443.712 184.399 443.746 184.569 443.823C184.629 443.85 184.68 443.892 184.718 443.945C184.756 443.998 184.779 444.061 184.784 444.126C184.83 444.284 184.833 444.451 184.793 444.611C184.753 444.77 184.672 444.916 184.557 445.034C183.887 445.69 181.928 445.804 179.21 445.362C180.708 444.55 182.339 444.012 184.026 443.773V443.722Z" fill="#C62A56"/>
    <path d="M178.363 445.829H178.477C179.842 445.186 182.42 442.599 182.054 441.237C181.978 440.909 181.7 440.518 180.903 440.43C180.63 440.399 180.353 440.427 180.092 440.512C179.83 440.597 179.59 440.737 179.387 440.922C177.996 442.183 178.047 445.413 178.047 445.551C178.052 445.602 178.068 445.651 178.094 445.695C178.12 445.738 178.156 445.776 178.199 445.804C178.251 445.823 178.307 445.832 178.363 445.829ZM180.739 440.959H180.903C181.434 440.959 181.485 441.224 181.51 441.287C181.725 442.107 180.006 444.138 178.628 445.072C178.628 444.138 178.881 442.196 179.791 441.376C179.916 441.246 180.065 441.142 180.229 441.071C180.394 441 180.572 440.962 180.752 440.959H180.739Z" fill="#C62A56"/>
    <path d="M113.912 445.539H125.933L129.927 417.772H117.906L113.912 445.539Z" fill="#CE7A63"/>
    <path d="M126.4 444.151H112.876C112.642 444.148 112.415 444.229 112.236 444.38C112.057 444.531 111.939 444.74 111.902 444.971L110.234 455.631C110.2 455.899 110.223 456.171 110.303 456.429C110.383 456.687 110.517 456.925 110.696 457.127C110.876 457.329 111.097 457.49 111.344 457.6C111.591 457.71 111.859 457.765 112.13 457.763C116.832 457.687 119.107 457.41 125.048 457.41C128.701 457.41 131.684 457.788 136.727 457.788C141.771 457.788 142.099 452.805 140.001 452.364C130.609 450.333 131.507 447.545 128.372 444.895C127.821 444.427 127.124 444.164 126.4 444.151Z" fill="#263238"/>
    <path d="M128.296 446.245C129.329 446.34 130.363 446.082 131.229 445.514C131.421 445.341 131.57 445.125 131.662 444.884C131.754 444.642 131.788 444.383 131.76 444.126C131.753 443.969 131.706 443.816 131.621 443.683C131.537 443.55 131.419 443.442 131.279 443.369C129.826 442.574 124.959 445.009 124.454 445.286C124.401 445.316 124.359 445.361 124.332 445.415C124.305 445.469 124.294 445.529 124.302 445.589C124.308 445.648 124.333 445.702 124.375 445.744C124.417 445.785 124.471 445.811 124.53 445.816C125.769 446.076 127.03 446.22 128.296 446.245ZM130.47 443.722C130.653 443.709 130.836 443.744 131.001 443.823C131.058 443.851 131.106 443.894 131.139 443.948C131.173 444.001 131.19 444.063 131.191 444.126C131.212 444.293 131.191 444.464 131.132 444.622C131.073 444.78 130.976 444.921 130.85 445.034C130.117 445.69 128.132 445.804 125.478 445.362C127.041 444.558 128.729 444.02 130.47 443.773V443.722Z" fill="#C62A56"/>
    <path d="M124.58 445.829H124.694C126.134 445.185 129.004 442.599 128.802 441.237C128.802 440.909 128.523 440.518 127.74 440.429C127.457 440.402 127.171 440.432 126.9 440.517C126.629 440.601 126.377 440.739 126.16 440.921C124.63 442.183 124.314 445.413 124.302 445.551C124.296 445.6 124.303 445.649 124.323 445.693C124.343 445.738 124.375 445.776 124.415 445.804C124.467 445.825 124.524 445.834 124.58 445.829ZM127.5 440.959H127.664C128.182 440.959 128.207 441.224 128.22 441.287C128.346 442.107 126.4 444.138 124.921 445.072C125.055 443.707 125.607 442.417 126.501 441.376C126.771 441.118 127.127 440.97 127.5 440.959Z" fill="#C62A56"/>
    <g opacity="0.2">
        <path d="M129.927 417.785L127.867 432.09H115.846L117.906 417.785H129.927Z" fill="black"/>
    </g>
    <path d="M135.981 183.302C124.276 201.847 127.55 270.147 125.705 306.555C123.783 344.401 114.329 429.265 114.329 429.265H130.571C130.571 429.265 146.169 342.95 153.437 306.353C161.463 265.984 171.234 183.252 171.234 183.252L135.981 183.302Z" fill="#263238"/>
    <path d="M113.293 429.908H132.354L133.037 423.828L111.599 423.096L113.293 429.908Z" fill="#C62A56"/>
    <path d="M170.084 71.05L172.422 70.4192C172.422 70.4192 171.196 72.2106 170.084 71.05Z" fill="#263238"/>
    <path d="M135.337 180.4L133.984 184.74C133.807 185.081 134.199 185.434 134.755 185.447L184.961 186.935C185.404 186.935 185.77 186.746 185.808 186.468L186.377 182.129C186.377 181.826 186.048 181.561 185.568 181.548L136.171 180.085C136.016 180.059 135.858 180.075 135.711 180.13C135.564 180.186 135.435 180.279 135.337 180.4Z" fill="#C62A56"/>
    <path d="M141.808 186.128H140.544C140.291 186.128 140.089 185.977 140.114 185.813L140.898 180.174C140.898 180.01 141.164 179.883 141.416 179.883H142.68C142.946 179.883 143.135 180.035 143.123 180.199L142.326 185.85C142.301 186.014 142.074 186.141 141.808 186.128Z" fill="#263238"/>
    <path d="M181.207 187.301H179.88C179.615 187.301 179.425 187.15 179.45 186.986L180.234 181.347C180.234 181.183 180.499 181.044 180.752 181.057H182.079C182.345 181.057 182.534 181.208 182.522 181.372L181.725 187.011C181.7 187.175 181.473 187.314 181.207 187.301Z" fill="#263238"/>
    <path d="M161.502 186.708H160.238C159.972 186.708 159.77 186.557 159.795 186.393L160.591 180.741C160.591 180.577 160.844 180.451 161.11 180.464H162.374C162.626 180.464 162.829 180.615 162.803 180.779L162.02 186.418C162.007 186.595 161.792 186.708 161.502 186.708Z" fill="#263238"/>
    <path d="M123.088 187.251L135.88 189.446L126.539 197.305C126.665 197.381 119.448 194.593 118.728 189.584L123.088 187.251Z" fill="#CE7A63"/>
    <path d="M139.47 199.324L136.651 201.443C136.023 201.91 135.26 202.162 134.477 202.162C133.694 202.162 132.931 201.91 132.303 201.443L126.539 197.267L135.88 189.408L139.988 193.912C140.335 194.289 140.599 194.736 140.762 195.222C140.925 195.708 140.985 196.222 140.936 196.733C140.887 197.243 140.731 197.737 140.479 198.184C140.226 198.63 139.882 199.018 139.47 199.324Z" fill="#CE7A63"/>
    <path d="M506.384 159.787H197.5C191.287 159.787 186.251 164.814 186.251 171.015V353.938C186.251 360.139 191.287 365.166 197.5 365.166H506.384C512.597 365.166 517.634 360.139 517.634 353.938V171.015C517.634 164.814 512.597 159.787 506.384 159.787Z" fill="white"/>
    <path d="M506.384 365.847H197.488C194.338 365.844 191.317 364.594 189.09 362.37C186.862 360.147 185.61 357.133 185.606 353.989V171.065C185.61 167.921 186.862 164.907 189.09 162.684C191.317 160.461 194.338 159.21 197.488 159.207H506.384C509.535 159.21 512.557 160.46 514.786 162.683C517.016 164.906 518.272 167.92 518.278 171.065V353.989C518.272 357.134 517.016 360.148 514.786 362.371C512.557 364.594 509.535 365.844 506.384 365.847ZM197.488 160.418C194.677 160.425 191.984 161.542 189.996 163.525C188.009 165.509 186.89 168.197 186.883 171.002V353.926C186.886 356.732 188.005 359.422 189.993 361.406C191.981 363.391 194.676 364.507 197.488 364.51H506.384C509.197 364.51 511.894 363.395 513.883 361.41C515.872 359.425 516.989 356.733 516.989 353.926V171.002C516.986 168.196 515.867 165.506 513.879 163.522C511.891 161.537 509.196 160.421 506.384 160.418H197.488Z" fill="#951F40"/>
    <path d="M513.589 365.166H190.296C189.025 365.165 187.769 365.437 186.613 365.964C185.457 366.49 184.428 367.26 183.596 368.219L171.664 382.007C170.554 383.288 169.837 384.86 169.597 386.535C169.357 388.211 169.604 389.921 170.31 391.46C171.016 393 172.151 394.304 173.578 395.218C175.006 396.132 176.667 396.618 178.363 396.616H525.521C527.217 396.618 528.878 396.132 530.306 395.218C531.734 394.304 532.868 393 533.574 391.46C534.28 389.921 534.528 388.211 534.288 386.535C534.048 384.86 533.33 383.288 532.22 382.007L520.275 368.219C519.445 367.261 518.419 366.493 517.265 365.966C516.111 365.439 514.858 365.167 513.589 365.166Z" fill="white"/>
    <path d="M525.52 397.247H178.363C176.545 397.246 174.765 396.724 173.235 395.743C171.705 394.762 170.49 393.363 169.733 391.713C168.977 390.063 168.712 388.23 168.969 386.434C169.226 384.637 169.995 382.952 171.183 381.579L183.116 367.803C184.007 366.774 185.109 365.949 186.348 365.383C187.587 364.817 188.933 364.524 190.295 364.523H513.576C514.94 364.522 516.289 364.815 517.53 365.381C518.771 365.947 519.875 366.773 520.768 367.803L532.7 381.579C533.889 382.952 534.657 384.637 534.914 386.434C535.172 388.23 534.906 390.063 534.15 391.713C533.394 393.363 532.178 394.762 530.649 395.743C529.119 396.724 527.339 397.246 525.52 397.247ZM190.295 365.847C189.117 365.846 187.952 366.099 186.881 366.589C185.81 367.079 184.857 367.794 184.089 368.686L172.144 382.474C171.113 383.662 170.446 385.12 170.223 386.675C170 388.231 170.23 389.817 170.886 391.246C171.541 392.674 172.595 393.884 173.921 394.731C175.247 395.578 176.789 396.027 178.363 396.023H525.52C527.094 396.024 528.634 395.574 529.958 394.726C531.282 393.878 532.334 392.668 532.988 391.24C533.642 389.812 533.871 388.226 533.647 386.672C533.423 385.118 532.757 383.661 531.727 382.474L519.795 368.686C519.024 367.794 518.069 367.079 516.996 366.589C515.922 366.099 514.756 365.846 513.576 365.847H190.295Z" fill="#951F40"/>
    <path d="M175.241 387.659C174.429 387.657 173.637 387.906 172.972 388.37C172.307 388.835 171.801 389.493 171.525 390.254C171.248 391.016 171.214 391.844 171.427 392.626C171.639 393.408 172.088 394.105 172.713 394.623C174.29 395.926 176.278 396.632 178.325 396.616H525.508C527.684 396.633 529.788 395.842 531.411 394.396C531.973 393.851 532.358 393.15 532.519 392.385C532.679 391.619 532.606 390.824 532.31 390.1C532.014 389.376 531.508 388.756 530.857 388.322C530.205 387.887 529.439 387.656 528.655 387.659H175.241Z" fill="#951F40"/>
    <path d="M511.225 353.926V171.002C511.225 168.334 509.057 166.171 506.383 166.171L197.487 166.171C194.814 166.171 192.646 168.334 192.646 171.002V353.926C192.646 356.594 194.814 358.758 197.487 358.758H506.383C509.057 358.758 511.225 356.594 511.225 353.926Z" fill="#63152B"/>
    <path opacity="0.3" d="M503.945 355.301H199.94C198.934 355.301 197.97 354.902 197.259 354.192C196.547 353.482 196.148 352.52 196.148 351.516V173.449C196.148 172.446 196.547 171.483 197.259 170.773C197.97 170.063 198.934 169.665 199.94 169.665H503.945C504.95 169.665 505.915 170.063 506.626 170.773C507.337 171.483 507.737 172.446 507.737 173.449V351.503C507.738 352.001 507.641 352.495 507.452 352.956C507.262 353.416 506.983 353.835 506.63 354.188C506.278 354.54 505.859 354.82 505.399 355.011C504.938 355.202 504.444 355.301 503.945 355.301ZM199.94 170.308C199.522 170.308 199.107 170.39 198.721 170.55C198.335 170.71 197.983 170.944 197.688 171.239C197.392 171.534 197.157 171.885 196.997 172.271C196.837 172.656 196.755 173.07 196.755 173.487V351.503C196.758 352.344 197.095 353.15 197.692 353.743C198.289 354.337 199.097 354.67 199.94 354.67H503.945C504.785 354.667 505.59 354.332 506.184 353.739C506.779 353.146 507.114 352.342 507.117 351.503V173.449C507.117 172.608 506.783 171.802 506.189 171.206C505.594 170.61 504.787 170.274 503.945 170.27L199.94 170.308Z" fill="white"/>
    <path d="M401.042 236.943C401.042 243.251 462.219 243.251 462.219 236.943C462.219 201.935 401.042 201.935 401.042 236.943Z" fill="#63152B"/>
    <path d="M431.631 242.317C424.572 242.378 417.517 241.982 410.509 241.131C401.408 239.869 400.397 238.141 400.397 236.943C400.397 218.436 416.614 210.009 431.669 210.009C446.735 210.009 462.94 218.436 462.94 236.943C462.902 242.052 436.851 242.317 431.631 242.317ZM401.724 236.943C401.724 238.621 412.127 240.954 431.631 240.954C451.134 240.954 461.537 238.621 461.537 236.943C461.537 219.369 446.04 211.371 431.631 211.371C417.221 211.371 401.724 219.369 401.724 236.943Z" fill="white"/>
    <path d="M467.263 157.693C471.991 167.596 477.54 190.493 478.399 208.672C478.433 209.342 478.287 210.009 477.977 210.604C477.667 211.2 477.204 211.702 476.636 212.06C476.067 212.419 475.414 212.619 474.742 212.642C474.07 212.665 473.404 212.51 472.812 212.191C471.425 211.428 469.915 210.911 468.35 210.665C466.517 210.387 465.114 207.826 465.076 204.736L464.47 159.32C464.444 156.885 466.328 155.763 467.263 157.693Z" fill="white"/>
    <path d="M474.594 213.327C473.866 213.325 473.149 213.143 472.509 212.797C471.186 212.072 469.75 211.577 468.261 211.334C466.087 211.006 464.469 208.255 464.469 204.786L463.875 159.371C463.779 158.697 463.907 158.011 464.241 157.418C464.574 156.825 465.095 156.359 465.721 156.091C466.18 156.022 466.648 156.118 467.043 156.36C467.439 156.602 467.736 156.976 467.882 157.415C472.572 167.243 478.197 190.215 479.081 208.634C479.105 209.234 479.008 209.832 478.795 210.393C478.583 210.955 478.26 211.468 477.844 211.902C477.429 212.336 476.931 212.683 476.379 212.921C475.828 213.159 475.233 213.284 474.632 213.289L474.594 213.327ZM466.037 157.365H465.974C465.62 157.453 465.102 158.147 465.114 159.371L465.721 204.786C465.721 207.524 466.985 209.832 468.451 210.085C470.088 210.341 471.667 210.884 473.115 211.687C473.608 211.948 474.162 212.075 474.72 212.053C475.278 212.032 475.82 211.863 476.292 211.564C476.763 211.266 477.147 210.848 477.404 210.353C477.66 209.858 477.781 209.304 477.754 208.747C476.882 190.43 471.32 167.722 466.681 158.008C466.606 157.844 466.416 157.365 466.037 157.365Z" fill="#951F40"/>
    <path d="M468.147 217.566C468.147 226.598 395.114 226.598 395.114 217.566V117.096C394.984 95.601 399.952 74.3799 409.612 55.1673C415.679 43.271 423.276 33.2543 431.631 33.2543C439.986 33.2543 447.582 43.271 453.649 55.1673C463.309 74.3799 468.277 95.601 468.147 117.096V217.566Z" fill="white"/>
    <path d="M431.631 224.984C423.173 225.07 414.721 224.501 406.351 223.28C398.312 221.956 394.406 220.089 394.406 217.566V117.096C394.321 95.4972 399.336 74.1818 409.043 54.8772C416.627 40.1046 424.211 32.611 431.631 32.611C439.05 32.611 446.685 40.1046 454.218 54.8772C463.904 74.1871 468.897 95.5023 468.792 117.096V217.566C468.792 224.769 435.435 224.984 431.631 224.984ZM431.631 33.8978C424.704 33.8978 417.487 41.1517 410.143 55.4575C400.549 74.5879 395.604 95.7041 395.708 117.096V217.566C395.708 221.01 411.47 223.697 431.593 223.697C451.716 223.697 467.478 221.01 467.478 217.566V117.096C467.585 95.7241 462.653 74.6263 453.081 55.508C445.775 41.1517 438.608 33.8978 431.631 33.8978Z" fill="#951F40"/>
    <path d="M431.631 81.7732C419.85 81.7732 409.018 78.5688 401.914 72.9424L402.71 71.9331C409.485 77.2694 420.305 80.4485 431.631 80.4485C442.956 80.4485 453.776 77.2694 460.551 71.9331L461.347 72.9424C454.244 78.5688 443.411 81.7732 431.631 81.7732Z" fill="#951F40"/>
    <path d="M397.515 157.693C389.35 167.861 379.819 191.754 378.732 210.122C378.688 210.779 378.816 211.435 379.104 212.027C379.391 212.619 379.828 213.125 380.372 213.497C380.915 213.869 381.547 214.093 382.203 214.147C382.86 214.201 383.52 214.084 384.117 213.806C387.743 212.102 391.64 211.043 395.632 210.678C397.12 210.538 398.505 209.857 399.522 208.763C400.538 207.669 401.115 206.24 401.143 204.748L402.142 159.333C402.142 158.795 401.976 158.271 401.666 157.832C401.356 157.393 400.917 157.061 400.409 156.881C399.902 156.701 399.351 156.682 398.833 156.828C398.315 156.973 397.854 157.275 397.515 157.693Z" fill="white"/>
    <path d="M382.525 214.853C381.65 214.851 380.796 214.588 380.073 214.096C379.423 213.664 378.899 213.07 378.55 212.373C378.202 211.676 378.043 210.9 378.088 210.123C379.15 191.59 388.908 167.419 397.048 157.327C397.472 156.794 398.053 156.407 398.708 156.221C399.364 156.035 400.061 156.058 400.703 156.287C401.345 156.517 401.898 156.942 402.285 157.502C402.673 158.061 402.874 158.728 402.862 159.409L401.851 204.824C401.822 206.472 401.186 208.051 400.064 209.261C398.943 210.471 397.415 211.226 395.771 211.384C391.826 211.728 387.974 212.77 384.395 214.462C383.81 214.732 383.17 214.866 382.525 214.853ZM398.009 158.084C390.033 168.037 380.414 191.868 379.365 210.16C379.333 210.717 379.448 211.272 379.698 211.77C379.949 212.269 380.326 212.692 380.793 212.999C381.238 213.302 381.754 213.483 382.29 213.525C382.827 213.567 383.365 213.468 383.852 213.239C387.551 211.477 391.537 210.391 395.62 210.034C396.95 209.907 398.187 209.295 399.094 208.316C400.001 207.336 400.515 206.057 400.537 204.723L401.535 159.308C401.554 158.899 401.442 158.495 401.215 158.154C400.987 157.814 400.657 157.555 400.271 157.415C399.88 157.266 399.451 157.247 399.048 157.361C398.645 157.474 398.289 157.715 398.034 158.046L398.009 158.084Z" fill="#951F40"/>
    <path d="M443.272 160.203C454.986 160.203 464.482 146.637 464.482 129.901C464.482 113.166 454.986 99.5989 443.272 99.5989C431.558 99.5989 422.062 113.166 422.062 129.901C422.062 146.637 431.558 160.203 443.272 160.203Z" fill="#951F40"/>
    <path d="M445.282 155.258C454.308 155.258 461.625 143.905 461.625 129.901C461.625 115.897 454.308 104.544 445.282 104.544C436.255 104.544 428.938 115.897 428.938 129.901C428.938 143.905 436.255 155.258 445.282 155.258Z" fill="white"/>
    <path d="M257.856 359.451C257.674 359.451 257.499 359.38 257.369 359.252C257.239 359.125 257.164 358.952 257.161 358.77C257.161 358.114 257.161 357.294 257.161 356.373C256.946 349.271 256.504 334.511 265.617 326.096C271.166 320.936 279.433 318.867 290.189 319.952C323.976 323.371 342.797 314.023 357.308 286.635C363.754 274.474 377.734 272.758 390.083 271.295C399.525 270.147 408.437 269.074 412.456 263.511C414.908 260.117 415.439 255.223 414.087 248.562C414.068 248.473 414.068 248.382 414.085 248.293C414.103 248.204 414.138 248.119 414.189 248.044C414.239 247.969 414.304 247.905 414.38 247.855C414.456 247.805 414.541 247.771 414.63 247.754C414.717 247.736 414.807 247.735 414.895 247.752C414.983 247.769 415.066 247.803 415.14 247.852C415.214 247.902 415.278 247.965 415.327 248.039C415.376 248.114 415.41 248.197 415.427 248.284C416.868 255.349 416.261 260.584 413.568 264.306C409.195 270.349 399.993 271.471 390.248 272.645C377.608 274.171 364.626 275.748 358.521 287.278C343.695 315.247 324.494 324.797 290.05 321.34C279.698 320.293 271.786 322.236 266.54 327.118C257.894 335.167 258.324 349.51 258.526 356.411C258.526 357.344 258.589 358.177 258.589 358.846C258.57 359.022 258.483 359.184 258.346 359.297C258.209 359.41 258.033 359.465 257.856 359.451Z" fill="white"/>
    <path d="M407.008 359.451C406.83 359.448 406.661 359.377 406.534 359.252C406.407 359.128 406.332 358.96 406.326 358.782V358.063C406.111 345.448 405.82 328.278 424.97 325.818C436.346 324.368 443.032 321.63 445.497 317.467C447.962 313.304 445.851 307.766 443.765 302.492C441.945 297.9 440.075 293.157 441.237 289.133C443.092 282.889 446.416 277.18 450.932 272.48C456.064 266.614 458.896 263.385 449.011 248.751C448.914 248.599 448.879 248.416 448.914 248.239C448.949 248.063 449.052 247.907 449.201 247.805C449.275 247.755 449.359 247.72 449.447 247.703C449.535 247.685 449.626 247.685 449.714 247.703C449.802 247.72 449.886 247.755 449.96 247.805C450.035 247.855 450.099 247.919 450.149 247.994C460.615 263.498 457.353 267.22 451.956 273.376C447.582 277.938 444.359 283.473 442.552 289.524C441.49 293.094 443.197 297.421 445.004 301.988C447.216 307.576 449.491 313.342 446.647 318.161C443.955 322.715 436.902 325.667 425.159 327.181C407.236 329.477 407.463 345.99 407.716 358.038V358.757C407.718 358.847 407.702 358.936 407.669 359.019C407.636 359.102 407.587 359.178 407.525 359.243C407.463 359.307 407.389 359.359 407.307 359.394C407.224 359.43 407.136 359.449 407.046 359.451H407.008Z" fill="white"/>
    <path d="M265.44 223.47H265.01C264.137 221.265 262.644 219.359 260.711 217.98C258.778 216.601 256.488 215.809 254.115 215.698C252.839 215.633 251.56 215.76 250.323 216.077C249.239 213.521 247.344 211.391 244.93 210.013C242.516 208.636 239.716 208.087 236.959 208.45C234.203 208.814 231.641 210.071 229.669 212.027C227.697 213.984 226.422 216.532 226.041 219.281C223.494 219.369 221.079 220.431 219.296 222.248C217.512 224.065 216.497 226.496 216.462 229.04C216.426 231.583 217.372 234.042 219.104 235.908C220.835 237.774 223.22 238.903 225.763 239.062L264.631 240.955C265.781 241.01 266.93 240.839 268.013 240.451C269.096 240.063 270.092 239.467 270.945 238.695C271.797 237.923 272.488 236.991 272.979 235.952C273.471 234.913 273.752 233.788 273.808 232.641C273.863 231.494 273.692 230.347 273.304 229.266C272.915 228.184 272.317 227.19 271.543 226.34C270.77 225.489 269.836 224.799 268.795 224.309C267.755 223.819 266.627 223.538 265.478 223.482L265.44 223.47Z" fill="white"/>
    <path d="M321.372 183.201C324.05 183.194 326.682 183.892 329.004 185.223C331.326 186.555 333.255 188.473 334.598 190.785C335.941 193.098 336.65 195.722 336.654 198.395C336.657 201.068 335.955 203.694 334.619 206.01L322.472 197.52L316.152 184.109C317.803 183.504 319.549 183.196 321.309 183.201M321.309 181.839C318.889 181.835 316.497 182.365 314.306 183.39L321.334 198.428L334.96 207.94C336.704 205.452 337.731 202.535 337.929 199.505C338.126 196.475 337.487 193.449 336.08 190.757C334.673 188.065 332.553 185.81 329.951 184.237C327.348 182.664 324.364 181.835 321.321 181.839H321.309Z" fill="white"/>
    <path d="M321.397 198.428L334.96 207.94C334.407 208.733 333.786 209.476 333.102 210.16C331.387 211.883 329.314 213.209 327.029 214.045C324.745 214.881 322.304 215.207 319.88 214.999C317.455 214.792 315.106 214.055 312.998 212.843C310.889 211.63 309.073 209.971 307.677 207.981C306.281 205.992 305.34 203.721 304.919 201.329C304.498 198.937 304.608 196.482 305.242 194.137C305.875 191.792 307.016 189.615 308.585 187.758C310.153 185.901 312.111 184.41 314.319 183.39L321.397 198.428Z" fill="white"/>
    <path d="M276.727 301.244C275.741 301.247 274.786 300.897 274.034 300.259C273.283 299.62 272.786 298.734 272.632 297.762L268.158 270.512C267.979 269.423 268.24 268.308 268.885 267.412C269.53 266.515 270.505 265.911 271.596 265.731L316.998 258.313C318.088 258.138 319.202 258.401 320.097 259.044C320.993 259.688 321.597 260.658 321.776 261.745L326.251 288.994C326.426 290.083 326.163 291.196 325.519 292.092C324.875 292.988 323.902 293.593 322.813 293.775L277.41 301.193C277.184 301.229 276.956 301.246 276.727 301.244ZM317.668 259.613H317.213L271.76 267.081C271.03 267.205 270.378 267.61 269.945 268.21C269.512 268.81 269.333 269.555 269.447 270.285L273.921 297.547C274.048 298.278 274.457 298.93 275.059 299.364C275.357 299.578 275.695 299.731 276.053 299.813C276.412 299.895 276.782 299.906 277.145 299.843L322.547 292.425C323.278 292.305 323.931 291.9 324.362 291.299C324.794 290.698 324.968 289.951 324.848 289.221L320.373 261.959C320.315 261.597 320.186 261.25 319.993 260.939C319.8 260.627 319.547 260.356 319.248 260.143C318.786 259.815 318.235 259.634 317.668 259.625V259.613Z" fill="white"/>
    <path d="M305.559 278.385L290.214 272.594L292.869 288.767L305.559 278.385Z" fill="white"/>
    <path d="M492.695 256.396H483.48V284.074H492.695V256.396Z" fill="white"/>
    <path d="M492.695 286.004H483.48V291.214H492.695V286.004Z" fill="white"/>
    <path d="M492.695 294.381H483.48V296.98H492.695V294.381Z" fill="white"/>
    <path d="M492.695 301.736H483.48V303.035H492.695V301.736Z" fill="white"/>
    <path d="M478.892 258.944L488.081 243.061L497.27 258.944H478.892Z" fill="white"/>
    <path d="M364.032 211.863H358.218V229.336H364.032V211.863Z" fill="white"/>
    <path d="M364.032 230.559H358.218V233.852H364.032V230.559Z" fill="white"/>
    <path d="M364.032 235.858H358.218V237.498H364.032V235.858Z" fill="white"/>
    <path d="M364.032 240.5H358.218V241.32H364.032V240.5Z" fill="white"/>
    <path d="M355.323 213.478L361.125 203.436L366.939 213.478H355.323Z" fill="white"/>
    <path d="M496.12 110.309H488.726V132.512H496.12V110.309Z" fill="#C62A56"/>
    <path d="M496.12 134.064H488.726V138.24H496.12V134.064Z" fill="#C62A56"/>
    <path d="M496.12 140.788H488.726V142.882H496.12V140.788Z" fill="#C62A56"/>
    <path d="M496.12 146.692H488.726V147.739H496.12V146.692Z" fill="#C62A56"/>
    <path d="M485.047 112.353L492.417 99.6116L499.786 112.353H485.047Z" fill="#C62A56"/>
</svg>
